<svg xmlns="http://www.w3.org/2000/svg" viewBox="0 0 360 266"><g fill="#211915"><path d="M165.08,235.84c-1.23-8.03-17.3-8.03-21-22.23-3.7-14.21-3.09-42-3.09-54.97s-4.94-25.94-9.89-27.17c-4.94-1.24.62,24.7.62,38.29s-3.7,30.26-8.65,33.35c-4.94,3.09-56.2-22.85-66.7-27.18-10.5-4.32-29.65-19.76-32.12-34.58-2.47-14.82,28.46-43.78,50.03-53.73,8.03-3.7-15.44-9.26-50.64,17.91,0,0-3.9-51.76,24.7-99.43,5.56-9.26-16.06,5.56-31.5,41.38-15.44,35.82-29.64,104.99,2.47,132.17,32.11,27.17,67.32,38.29,84.61,43.23,17.3,4.94,30.26,16.06,31.5,24.71,1.24,8.65,2.47,11.73,9.27,14.2,6.8,2.47,21.61-17.91,20.38-25.94Z"/><path d="M194.38,235.84c1.23-8.03,17.29-8.03,21-22.23,3.7-14.21,3.09-42,3.09-54.97s4.94-25.94,9.88-27.17c4.94-1.24-.62,24.7-.62,38.29s3.71,30.26,8.65,33.35c4.94,3.09,56.2-22.85,66.7-27.18,10.5-4.32,29.64-19.76,32.12-34.58,2.47-14.82-28.45-43.78-50.03-53.73-8.03-3.7,15.44-9.26,50.64,17.91,0,0,3.9-51.76-24.71-99.43-5.56-9.26,16.06,5.56,31.5,41.38,15.44,35.82,29.65,104.99-2.47,132.17-32.11,27.17-67.32,38.29-84.61,43.23-17.29,4.94-30.26,16.06-31.5,24.71-1.23,8.65-2.47,11.73-9.27,14.2-6.79,2.47-21.61-17.91-20.38-25.94Z"/></g></svg>
